<svg xmlns="http://www.w3.org/2000/svg" xml:space="preserve" id="theme" viewBox="0 0 512 512"><path fill="currentColor" d="M256.001 79.844c-96.183 0-174.432 78.25-174.432 174.432 0 65.832 36.949 125.647 95.024 155.339v51.509h158.818v-51.509c58.074-29.692 95.023-89.505 95.023-155.339-.002-96.182-78.252-174.432-174.433-174.432zm5.727 347.889h-9.939V321.884h9.939v105.849zm50.341-44.008-10.051 4.36v39.648h-6.898V321.884h6.551c22.024 0 39.942-17.919 39.942-39.943S323.696 242 301.672 242s-39.943 17.918-39.943 39.942c0 2.232.193 4.418.547 6.551h-12.55c.354-2.134.547-4.32.547-6.551 0-22.024-17.918-39.942-39.942-39.942s-39.942 17.918-39.942 39.942 17.918 39.943 39.942 39.943h8.068v105.848h-8.416v-39.648l-10.051-4.36c-51.619-22.392-84.972-73.205-84.972-129.449 0-77.769 63.271-141.04 141.04-141.04s141.04 63.271 141.04 141.04c.001 56.244-33.352 107.057-84.971 129.449zM295.12 281.943c0-3.612 2.94-6.55 6.551-6.55 3.612 0 6.55 2.938 6.55 6.55s-2.938 6.551-6.55 6.551a6.559 6.559 0 0 1-6.551-6.551zm-78.24-.001c0 3.612-2.938 6.551-6.55 6.551s-6.55-2.94-6.55-6.551c0-3.612 2.938-6.55 6.55-6.55s6.55 2.938 6.55 6.55zM191.422 478.609H320.58V512H191.422zM239.305 0h33.391v60.338h-33.391zM114.404 42.411l28.916-16.695 30.169 52.251-28.917 16.696zM27.436 141.595l16.696-28.917 52.252 30.169-16.696 28.917zM1.725 237.579h60.338v33.391H1.725zM27.427 366.948l52.252-30.168 16.695 28.916-52.252 30.169zM415.609 365.72l16.695-28.918 52.252 30.169-16.695 28.917zM449.937 237.579h60.338v33.391h-60.338zM415.6 142.832l52.252-30.168 16.696 28.917-52.252 30.168zM338.492 77.976l30.169-52.251 28.916 16.695-30.168 52.252z" /></svg>
